<?xml version="1.0" encoding="UTF-8" standalone="no"?>
<svg id="Layer_1"
     viewBox="0 0 16 14"
     version="1.1"
     width="16"
     height="14"
     xmlns="http://www.w3.org/2000/svg"
     xmlns:svg="http://www.w3.org/2000/svg">
    <defs id="defs1" />
    <path
        id="path1"
        style="fill:#f3db8d;fill-opacity:1;stroke-width:0.133829"
        d="m 11.612095,6.1718669 a 0.91144044,0.96286609 0 0 0 -0.507853,0.1265372 l -0.02721,0.018 a 0.8541499,0.90234308 0 0 0 -0.339756,0.4800897 1.2473714,1.3177511 0 0 0 -0.06002,0.345224 c -0.02083,0.2861086 0,0.6328054 0,0.9257916 l -3.3098183,-0.007 a 0.65102889,0.6877615 0 0 0 -0.6444169,0.687762 v 2.6685676 a 0.65102889,0.6877615 0 0 0 0.6444169,0.687762 h 3.2851533 v 0.767552 a 1.1991952,1.2668567 0 0 0 0.225062,0.805971 0.80076553,0.84594664 0 0 0 0.260412,0.228358 l 0.03128,0.01666 a 0.84894167,0.89684099 0 0 0 0.347639,0.07683 1.4166389,1.4965691 0 0 0 0.85295,-0.361613 c 1.041645,-0.889963 2.106781,-1.861212 3.177071,-2.711285 a 1.4322636,1.5130753 0 0 0 0.260412,-0.275104 0.99347009,1.049524 0 0 0 0.160214,-0.342537 l 0.01169,-0.04245 a 0.8450355,0.89271442 0 0 0 -0.03,-0.5007756 1.0416462,1.1004184 0 0 0 -0.289148,-0.448388 l -0.03509,-0.0317 C 15.009205,8.7758184 14.453328,8.3026264 13.906463,7.8308229 13.317935,7.3246308 12.726778,6.8171264 12.160384,6.349449 L 12.076974,6.290344 11.980594,6.247627 A 1.2890372,1.3617678 0 0 0 11.612101,6.171866 Z" />
    <path
        id="path2"
        style="fill:#8da5f3;fill-opacity:1;stroke-width:0.133829"
        d="M 4.4886693,1.3393318e-5 A 1.4322636,1.5130753 0 0 0 3.6331767,0.36028221 C 2.5824172,1.2502447 1.5199765,2.2214302 0.45229021,3.0742535 A 1.4322636,1.5130753 0 0 0 0.19187866,3.3493581 0.96612687,1.0206381 0 0 0 0.02123789,3.7346121 0.84763961,0.89546546 0 0 0 0.04997471,4.2367317 1.0520627,1.1114226 0 0 0 0.34014032,4.6767916 l 0.0353488,0.037074 C 0.98875776,5.2269359 1.5381154,5.6946899 2.0836771,6.1664937 2.6748107,6.6713101 3.2620908,7.1761604 3.8284854,7.6438376 A 0.70441326,0.74415794 0 0 0 4.017182,7.7537184 1.3932018,1.4718096 0 0 0 4.3869461,7.8294795 0.9036281,0.95461296 0 0 0 4.9222647,7.6835989 0.85154579,0.89959204 0 0 0 5.2620204,7.2035091 1.2473714,1.3177511 0 0 0 5.3217829,6.8582851 c 0.020833,-0.2861085 0,-0.6325367 0,-0.9255228 H 8.6316035 A 0.65102889,0.6877615 0 0 0 9.2762747,5.2530604 V 2.5777757 A 0.65102889,0.6877615 0 0 0 8.6316035,1.8983425 H 5.3543344 V 1.1278349 A 1.1926849,1.259979 0 0 0 5.1264743,0.32320757 0.79034907,0.83494245 0 0 0 4.8660627,0.09350597 L 4.8363086,0.07846119 A 0.8294108,0.87620814 0 0 0 4.4886693,1.3393318e-5 Z M 4.4873933,0.75520776 a 0.13020578,0.1375523 0 0 1 0.054676,0.0110149 l 0.025939,0.0233731 a 0.5611869,0.59285041 0 0 1 0.071715,0.33823914 v 1.144478 A 0.35546177,0.37551777 0 0 0 4.9911777,2.6532682 H 8.5601429 V 5.177568 H 4.967786 A 0.35676383,0.3768933 0 0 0 4.6109915,5.5544935 v 1.2186273 l -0.00254,0.00403 v 0.049702 a 0.47655315,0.50344142 0 0 1 -0.023399,0.1375521 0.14973664,0.15818514 0 0 1 -0.056202,0.087851 0.19661072,0.20770397 0 0 1 -0.1157103,0.023373 0.54556221,0.57634413 0 0 1 -0.1497875,-0.03009 C 3.6461775,6.5352204 3.0915913,6.0522282 2.5343112,5.5859264 1.954896,5.089363 1.3713899,4.5873822 0.8167138,4.1265823 a 0.34764943,0.36726464 0 0 1 -0.0989259,-0.1375522 0.14062224,0.14855648 0 0 1 0,-0.085164 0.26041156,0.2751046 0 0 1 0.0467927,-0.097791 0.6783721,0.71664748 0 0 1 0.13020578,-0.1375527 L 4.0759272,0.95455112 A 0.74477705,0.78679915 0 0 1 4.4873979,0.75520776 Z" />
</svg>
